<svg width="32" height="12" viewBox="0 0 32 12" fill="none" xmlns="http://www.w3.org/2000/svg">
	<path d="M9.21549 0.386475H0.244814V2.31003H6.47005L0.332169 9.91679C0.139842 10.1966 0 10.4589 0 11.0534V11.543H8.46352C8.88323 11.543 9.23302 11.1933 9.23302 10.7736V9.7419H2.69296L8.46352 2.50236C8.55097 2.39747 8.70833 2.20515 8.77835 2.1177L8.81331 2.06521C9.14557 1.57559 9.21549 1.15588 9.21549 0.648816V0.386475Z" fill="#818181"/>
	<path d="M20.6333 11.543H21.9099V0.386475H19.9863V10.896C19.9863 11.2458 20.2661 11.543 20.6333 11.543Z" fill="#818181"/>
	<path d="M14.0572 2.87C11.6441 2.87 9.68555 4.82851 9.68555 7.24169C9.68555 9.65487 11.6441 11.6134 14.0572 11.6134C16.4704 11.6134 18.4289 9.65487 18.4289 7.24169C18.4465 4.82851 16.4879 2.87 14.0572 2.87ZM14.0572 9.81224C12.6408 9.81224 11.4867 8.65809 11.4867 7.24169C11.4867 5.82529 12.6408 4.67114 14.0572 4.67114C15.4736 4.67114 16.6278 5.82529 16.6278 7.24169C16.6278 8.65809 15.4912 9.81224 14.0572 9.81224Z" fill="#818181"/>
	<path d="M27.5942 2.79968C25.1634 2.79968 23.1875 4.77572 23.1875 7.20634C23.1875 9.63704 25.1634 11.6131 27.5942 11.6131C30.0248 11.6131 32.0008 9.63704 32.0008 7.20634C32.0008 4.77572 30.0248 2.79968 27.5942 2.79968ZM27.5942 9.81194C26.1602 9.81194 25.0061 8.65779 25.0061 7.22386C25.0061 5.78994 26.1602 4.63579 27.5942 4.63579C29.0281 4.63579 30.1822 5.78994 30.1822 7.22386C30.1822 8.65779 29.0281 9.81194 27.5942 9.81194Z" fill="#818181"/>
	<path d="M17.4178 11.5428H18.4496V3.11414H16.6484V10.7909C16.6484 11.1931 16.9981 11.5428 17.4178 11.5428Z" fill="#818181"/>
</svg>