<svg width="436" height="603" viewBox="0 0 436 603" fill="none" xmlns="http://www.w3.org/2000/svg">
<path opacity="0.15" d="M0 -0.000976562C240.764 -0.000976562 436 195.236 436 436C436 676.764 240.764 872 0 872C-151.085 872 -284.24 795.117 -362.475 678.349L-116.075 551.665L-242.404 798.171L-63.165 587.349L-85.7236 863.387L-0.410156 599.653L84.4932 863.387L61.9346 587.349L241.174 798.171L114.845 551.665L361.351 678.404L150.118 498.754L426.566 521.313L162.834 436.41L426.566 351.507L150.118 373.655L361.351 194.416L114.845 320.745L241.174 74.2383L61.9346 285.471L84.4932 9.43359L-0.410156 273.166L-85.7236 9.43359L-63.165 285.471L-242.404 74.2383L-116.075 320.745L-362.581 194.416L-151.349 373.655L-427.797 351.507L-164.063 436.41L-427.662 521.27C-433.132 493.693 -436 465.181 -436 436C-436 195.236 -240.764 -0.000923173 0 -0.000976562ZM-362.49 678.326C-393.803 631.584 -416.317 578.452 -427.656 521.302L-151.349 498.754L-362.49 678.326Z" fill="url(#paint0_linear_57811_5506)"/>
<defs>
<linearGradient id="paint0_linear_57811_5506" x1="-436" y1="435.999" x2="492.057" y2="450.237" gradientUnits="userSpaceOnUse">
<stop stop-color="white"/>
<stop offset="1" stop-color="white" stop-opacity="0"/>
</linearGradient>
</defs>
</svg>
