<svg width="25" height="25" viewBox="0 0 25 25" fill="none" xmlns="http://www.w3.org/2000/svg">
<g clip-path="url(#clip0_59235_10657)">
<path d="M17.4312 18.7915C17.338 18.6362 17.1827 18.543 16.9964 18.512C16.2512 18.4499 15.5059 18.2636 14.8072 17.9375C14.1396 17.6425 13.5185 17.2078 12.9596 16.6488C11.7019 15.3912 11.0653 13.7298 11.0653 12.084C11.0653 10.4382 11.7019 8.77692 12.9596 7.51928C13.4875 6.99138 14.093 6.57216 14.714 6.26163C15.3817 5.93558 16.0804 5.73374 16.7946 5.67163C17.1051 5.64058 17.3225 5.3611 17.2914 5.05057C17.2604 4.86425 17.1672 4.70899 17.012 4.61583C15.3351 3.65319 13.3943 3.29608 11.5156 3.52898C9.68348 3.7774 7.92899 4.60031 6.53161 5.99768C4.83923 7.69007 3.98528 9.91035 3.98528 12.1462C3.98528 14.382 4.8237 16.5867 6.53161 18.2946C7.96004 19.7231 9.77664 20.546 11.6553 20.7788C13.5651 21.0117 15.5369 20.5925 17.2293 19.5523C17.5088 19.397 17.602 19.0554 17.4312 18.7915Z" fill="black"/>
</g>
<defs>
<clipPath id="clip0_59235_10657">
<rect width="17.1716" height="17.1716" fill="white" transform="translate(12.5 0.0292969) rotate(45)"/>
</clipPath>
</defs>
</svg>
