<svg width="17" height="16" viewBox="0 0 17 16" fill="none" xmlns="http://www.w3.org/2000/svg">
<g clip-path="url(#clip0_59235_10654)">
<path d="M11.336 5.16402C10.6164 4.44444 9.60053 3.97884 8.5 3.97884C7.39947 3.97884 6.3836 4.42328 5.66402 5.16402C4.94444 5.8836 4.47884 6.89947 4.47884 8C4.47884 9.10053 4.94444 10.1164 5.66402 10.836C6.3836 11.5556 7.39947 12.0212 8.5 12.0212C9.60053 12.0212 10.6164 11.5767 11.336 10.836C12.0556 10.1164 12.5212 9.10053 12.5212 8C12.5212 6.89947 12.0767 5.8836 11.336 5.16402ZM10.5741 10.0741C10.045 10.6032 9.30423 10.9206 8.5 10.9206C7.69577 10.9206 6.95503 10.6032 6.42593 10.0741C5.89682 9.54497 5.57936 8.80423 5.57936 8C5.57936 7.19577 5.89682 6.45503 6.42593 5.92593C6.95503 5.39682 7.69577 5.07936 8.5 5.07936C9.30423 5.07936 10.045 5.39682 10.5741 5.92593C11.1032 6.45503 11.4206 7.19577 11.4206 8C11.4206 8.80423 11.1032 9.54497 10.5741 10.0741ZM15.9497 7.44974H14.3201C14.0238 7.44974 13.7698 7.7037 13.7698 8C13.7698 8.2963 14.0238 8.55026 14.3201 8.55026H15.9497C16.246 8.55026 16.5 8.2963 16.5 8C16.5 7.7037 16.246 7.44974 15.9497 7.44974ZM8.5 13.2698C8.2037 13.2698 7.94974 13.5238 7.94974 13.8201V15.4497C7.94974 15.746 8.2037 16 8.5 16C8.7963 16 9.05026 15.746 9.05026 15.4497V13.8201C9.05026 13.5238 8.7963 13.2698 8.5 13.2698ZM14.1508 12.8889L12.9868 11.7249C12.7963 11.5132 12.4365 11.5132 12.2249 11.7249C12.0132 11.9365 12.0132 12.2751 12.2249 12.4868L13.3889 13.6508C13.6005 13.8624 13.9392 13.8624 14.1508 13.6508C14.3624 13.4392 14.3624 13.1005 14.1508 12.8889ZM8.5 0C8.2037 0 7.94974 0.253968 7.94974 0.550264V2.17989C7.94974 2.47619 8.2037 2.73016 8.5 2.73016C8.7963 2.73016 9.05026 2.47619 9.05026 2.17989V0.550264C9.05026 0.253968 8.7963 0 8.5 0ZM14.172 2.34921C13.9603 2.13757 13.6217 2.13757 13.4101 2.34921L12.246 3.51323C12.0344 3.72487 12.0344 4.06349 12.246 4.27513C12.4365 4.48677 12.7963 4.48677 13.0079 4.27513L14.172 3.11111C14.3836 2.89947 14.3836 2.56085 14.172 2.34921ZM2.67989 7.44974H1.05026C0.753968 7.44974 0.5 7.7037 0.5 8C0.5 8.2963 0.732804 8.55026 1.05026 8.55026H2.67989C2.97619 8.55026 3.23016 8.2963 3.23016 8C3.23016 7.7037 2.97619 7.44974 2.67989 7.44974ZM4.75397 11.7249C4.56349 11.5132 4.2037 11.5132 3.99206 11.7249L2.82804 12.8889C2.6164 13.1005 2.6164 13.4392 2.82804 13.6508C3.03968 13.8624 3.37831 13.8624 3.58995 13.6508L4.75397 12.4868C4.96561 12.2751 4.96561 11.9365 4.75397 11.7249ZM4.75397 3.51323L3.58995 2.34921C3.37831 2.13757 3.03968 2.13757 2.82804 2.34921C2.6164 2.56085 2.6164 2.89947 2.82804 3.11111L3.99206 4.27513C4.2037 4.48677 4.54233 4.48677 4.75397 4.27513C4.96561 4.06349 4.96561 3.72487 4.75397 3.51323Z" fill="black"/>
</g>
<defs>
<clipPath id="clip0_59235_10654">
<rect width="16" height="16" fill="white" transform="translate(0.5)"/>
</clipPath>
</defs>
</svg>
