<svg width="60" height="60" viewBox="0 0 60 60" fill="none" xmlns="http://www.w3.org/2000/svg">
<g clip-path="url(#clip0_57400_1427)">
<path d="M47.4326 21.848C49.6654 25.7001 50.8455 30.1019 50.8455 34.5773C50.8455 41.3679 48.2011 47.7522 43.3993 52.5538C38.5976 57.3555 32.2133 59.9999 25.4228 59.9999C18.6321 59.9999 12.2479 57.3555 7.44621 52.5538C2.64445 47.7522 0 41.3679 0 34.5773C0 27.7866 2.64445 21.4023 7.44621 16.6007C12.248 11.799 18.6321 9.15448 25.4228 9.15448C29.8984 9.15448 34.3002 10.3347 38.1521 12.5674C38.3664 12.6926 38.5223 12.8975 38.5857 13.1374C38.6491 13.3772 38.6149 13.6324 38.4905 13.8471C38.3661 14.0618 38.1616 14.2183 37.922 14.2826C37.6824 14.3468 37.427 14.3134 37.212 14.1897C33.6454 12.1223 29.5688 11.0296 25.4229 11.0296C12.4385 11.0295 1.875 21.593 1.875 34.5773C1.875 47.5615 12.4385 58.125 25.4228 58.125C38.407 58.125 48.9705 47.5615 48.9705 34.5774C48.9705 30.4317 47.8778 26.3551 45.8104 22.7883C45.6857 22.5732 45.6516 22.3173 45.7155 22.0771C45.7795 21.8368 45.9362 21.6318 46.1514 21.5071C46.3665 21.3824 46.6223 21.3483 46.8626 21.4122C47.1028 21.4761 47.3079 21.6329 47.4326 21.848ZM59.7254 11.9592L51.77 19.9146C51.6537 20.031 51.5087 20.1147 51.3498 20.1573C51.1908 20.1999 51.0235 20.1999 50.8645 20.1573L43.2177 18.1083L26.0857 35.2402C25.9027 35.4232 25.6628 35.5148 25.4228 35.5148C25.1828 35.5148 24.9429 35.4232 24.7598 35.2402C24.5841 35.0644 24.4853 34.8259 24.4853 34.5773C24.4853 34.3287 24.5841 34.0903 24.7598 33.9144L41.8918 16.7824L39.8428 9.13561C39.8002 8.97664 39.8002 8.80925 39.8428 8.65028C39.8854 8.49131 39.9691 8.34635 40.0855 8.22999L48.0409 0.274597C48.1573 0.158309 48.3022 0.0746919 48.4612 0.0321431C48.6201 -0.0104057 48.7874 -0.0103886 48.9464 0.0321927C49.1053 0.074774 49.2502 0.158421 49.3666 0.274732C49.483 0.391044 49.5667 0.535927 49.6093 0.694831L51.6582 8.34167L59.3052 10.3906C59.4642 10.4332 59.6092 10.5168 59.7256 10.6332C59.842 10.7496 59.9257 10.8946 59.9683 11.0536C60.0108 11.2126 60.0108 11.38 59.9682 11.5389C59.9256 11.6979 59.8419 11.8429 59.7254 11.9592ZM57.2514 11.7816L50.6501 10.0128C50.4911 9.97017 50.3462 9.88648 50.2298 9.77011C50.1134 9.65374 50.0297 9.50879 49.9871 9.34983L48.2183 2.74866L41.7939 9.17311L43.7027 16.2972L50.8268 18.206L57.2514 11.7816ZM25.4228 21.4453C27.3749 21.4453 29.2539 21.8639 31.0075 22.6894C31.2324 22.7952 31.4902 22.8074 31.7241 22.7232C31.9581 22.639 32.149 22.4654 32.2549 22.2405C32.3074 22.1291 32.3374 22.0084 32.3432 21.8855C32.349 21.7625 32.3305 21.6396 32.2888 21.5237C32.2472 21.4079 32.1831 21.3014 32.1002 21.2103C32.0173 21.1193 31.9174 21.0454 31.806 20.993C29.8008 20.049 27.6531 19.5703 25.4228 19.5703C17.1479 19.5703 10.4159 26.3024 10.4159 34.5773C10.4159 42.8521 17.1479 49.5842 25.4228 49.5842C33.6976 49.5842 40.4297 42.8521 40.4297 34.5773C40.4297 32.3473 39.9511 30.1996 39.007 28.194C38.9012 27.9691 38.7103 27.7954 38.4763 27.7112C38.2424 27.6269 37.9845 27.6391 37.7596 27.745C37.5346 27.8509 37.3609 28.0418 37.2767 28.2757C37.1925 28.5097 37.2046 28.7675 37.3105 28.9924C38.136 30.7464 38.5546 32.6253 38.5546 34.5771C38.5546 41.8182 32.6637 47.709 25.4227 47.709C18.1816 47.709 12.2907 41.8182 12.2907 34.5771C12.2907 27.3361 18.1818 21.4453 25.4228 21.4453Z" fill="#292929"/>
<path d="M59.7255 11.9592L51.7701 19.9146C51.6537 20.031 51.5088 20.1147 51.3498 20.1573C51.1909 20.1999 51.0235 20.1999 50.8646 20.1573L43.2177 18.1083L26.0858 35.2402C25.9027 35.4232 25.6628 35.5148 25.4228 35.5148C25.1828 35.5148 24.9429 35.4232 24.7599 35.2402C24.5841 35.0644 24.4854 34.8259 24.4854 34.5773C24.4854 34.3287 24.5841 34.0903 24.7599 33.9144L41.8919 16.7824L39.8429 9.13561C39.8003 8.97664 39.8003 8.80925 39.8429 8.65028C39.8855 8.49131 39.9692 8.34635 40.0856 8.22999L48.041 0.274597C48.1573 0.158309 48.3023 0.0746919 48.4612 0.0321431C48.6202 -0.0104057 48.7875 -0.0103885 48.9464 0.0321927C49.1053 0.074774 49.2503 0.158421 49.3666 0.274732C49.483 0.391044 49.5667 0.535927 49.6094 0.694831L51.6583 8.34167L59.3053 10.3906C59.4642 10.4332 59.6092 10.5168 59.7256 10.6332C59.842 10.7496 59.9257 10.8946 59.9683 11.0536C60.0109 11.2126 60.0109 11.38 59.9683 11.5389C59.9256 11.6979 59.8419 11.8429 59.7255 11.9592ZM57.2514 11.7816L50.6501 10.0128C50.4912 9.97017 50.3462 9.88648 50.2299 9.77011C50.1135 9.65374 50.0298 9.50879 49.9872 9.34983L48.2184 2.74866L41.7939 9.17311L43.7028 16.2972L50.8268 18.206L57.2514 11.7816Z" fill="#E42824"/>
</g>
<defs>
<clipPath id="clip0_57400_1427">
<rect width="60" height="60" fill="white"/>
</clipPath>
</defs>
</svg>
