<svg width="71" height="70" viewBox="0 0 71 70" fill="none" xmlns="http://www.w3.org/2000/svg">
<g clip-path="url(#clip0_58229_713)">
<path d="M36 70C55.33 70 71 54.33 71 35C71 15.67 55.33 0 36 0C16.67 0 1 15.67 1 35C1 54.33 16.67 70 36 70Z" fill="white"/>
<path d="M27.0566 50.7888L45.0535 68.7856C59.9588 64.8108 70.9999 51.2304 70.9999 35.0001V34.0064L56.8674 20.978L27.0566 50.7888Z" fill="#EFEFEF"/>
<path d="M36.8834 42.8392C38.4291 44.3849 38.4291 47.0347 36.8834 48.5805L33.6815 51.7824C32.1358 53.3281 29.4859 53.3281 27.9402 51.7824L13.9181 37.6499C12.3724 36.1041 12.3724 33.4543 13.9181 31.9086L17.12 28.7067C18.6657 27.1609 21.3156 27.1609 22.8613 28.7067L36.8834 42.8392Z" fill="#E42824"/>
<path d="M49.139 18.4386C50.6847 16.8929 53.3346 16.8929 54.8803 18.4386L58.0822 21.6405C59.6279 23.1862 59.6279 25.8361 58.0822 27.3818L33.792 51.5616C32.2462 53.1074 29.5964 53.1074 28.0507 51.5616L24.8488 48.3597C23.303 46.814 23.303 44.1641 24.8488 42.6184L49.139 18.4386Z" fill="#E42824"/>
</g>
<defs>
<clipPath id="clip0_58229_713">
<rect width="70" height="70" fill="white" transform="translate(0.5)"/>
</clipPath>
</defs>
</svg>
