<svg width="32" height="12" viewBox="0 0 32 12" fill="none" xmlns="http://www.w3.org/2000/svg">
<path d="M9.21549 0.386719H0.244814V2.31027H6.47005L0.332169 9.91704C0.139842 10.1968 0 10.4592 0 11.0537V11.5433H8.46352C8.88323 11.5433 9.23302 11.1936 9.23302 10.7739V9.74214H2.69296L8.46352 2.5026C8.55097 2.39772 8.70833 2.20539 8.77835 2.11794L8.81331 2.06546C9.14557 1.57583 9.21549 1.15612 9.21549 0.64906V0.386719Z" fill="white"/>
<path d="M20.6333 11.5433H21.9099V0.386719H19.9863V10.8963C19.9863 11.2461 20.2661 11.5433 20.6333 11.5433Z" fill="white"/>
<path d="M14.0582 2.87061C11.645 2.87061 9.68652 4.82912 9.68652 7.2423C9.68652 9.65548 11.645 11.614 14.0582 11.614C16.4714 11.614 18.4299 9.65548 18.4299 7.2423C18.4474 4.82912 16.4889 2.87061 14.0582 2.87061ZM14.0582 9.81285C12.6418 9.81285 11.4877 8.6587 11.4877 7.2423C11.4877 5.8259 12.6418 4.67175 14.0582 4.67175C15.4746 4.67175 16.6288 5.8259 16.6288 7.2423C16.6288 8.6587 15.4921 9.81285 14.0582 9.81285Z" fill="white"/>
<path d="M27.5932 2.80029C25.1625 2.80029 23.1865 4.77633 23.1865 7.20695C23.1865 9.63765 25.1625 11.6137 27.5932 11.6137C30.0238 11.6137 31.9998 9.63765 31.9998 7.20695C31.9998 4.77633 30.0238 2.80029 27.5932 2.80029ZM27.5932 9.81255C26.1593 9.81255 25.0051 8.6584 25.0051 7.22447C25.0051 5.79055 26.1593 4.6364 27.5932 4.6364C29.0271 4.6364 30.1813 5.79055 30.1813 7.22447C30.1813 8.6584 29.0271 9.81255 27.5932 9.81255Z" fill="white"/>
<path d="M17.4178 11.5429H18.4496V3.11426H16.6484V10.791C16.6484 11.1932 16.9981 11.5429 17.4178 11.5429Z" fill="white"/>
</svg>
