<svg width="32" height="12" viewBox="0 0 32 12" fill="none" xmlns="http://www.w3.org/2000/svg">
<path d="M9.21549 0.38623H0.244814V2.30978H6.47005L0.332169 9.91655C0.139842 10.1963 0 10.4587 0 11.0532V11.5428H8.46352C8.88323 11.5428 9.23302 11.1931 9.23302 10.7734V9.74165H2.69296L8.46352 2.50211C8.55097 2.39723 8.70833 2.2049 8.77835 2.11746L8.81331 2.06497C9.14557 1.57534 9.21549 1.15563 9.21549 0.648572V0.38623Z" fill="#818181"/>
<path d="M20.6338 11.5428H21.9104V0.38623H19.9868V10.8958C19.9868 11.2456 20.2666 11.5428 20.6338 11.5428Z" fill="#818181"/>
<path d="M14.0582 2.87012C11.645 2.87012 9.68652 4.82863 9.68652 7.24181C9.68652 9.65499 11.645 11.6135 14.0582 11.6135C16.4714 11.6135 18.4299 9.65499 18.4299 7.24181C18.4474 4.82863 16.4889 2.87012 14.0582 2.87012ZM14.0582 9.81236C12.6418 9.81236 11.4877 8.65821 11.4877 7.24181C11.4877 5.82541 12.6418 4.67126 14.0582 4.67126C15.4746 4.67126 16.6288 5.82541 16.6288 7.24181C16.6288 8.65821 15.4921 9.81236 14.0582 9.81236Z" fill="#818181"/>
<path d="M27.5937 2.7998C25.163 2.7998 23.187 4.77584 23.187 7.20646C23.187 9.63717 25.163 11.6132 27.5937 11.6132C30.0243 11.6132 32.0003 9.63717 32.0003 7.20646C32.0003 4.77584 30.0243 2.7998 27.5937 2.7998ZM27.5937 9.81206C26.1597 9.81206 25.0056 8.65791 25.0056 7.22398C25.0056 5.79006 26.1597 4.63591 27.5937 4.63591C29.0276 4.63591 30.1817 5.79006 30.1817 7.22398C30.1817 8.65791 29.0276 9.81206 27.5937 9.81206Z" fill="#818181"/>
<path d="M17.4183 11.5424H18.4501V3.11377H16.6489V10.7905C16.6489 11.1927 16.9986 11.5424 17.4183 11.5424Z" fill="#818181"/>
</svg>
