<svg width="20" height="21" viewBox="0 0 20 21" fill="none" xmlns="http://www.w3.org/2000/svg">
<path d="M10 0.5C15.5078 0.5 20 4.99219 20 10.5C20 16.0469 15.5078 20.5 10 20.5C4.45312 20.5 0 16.0469 0 10.5C0 4.99219 4.45312 0.5 10 0.5ZM10 19.25C11.8359 19.25 13.5547 18.7031 14.9609 17.7266C14.8047 15.7734 13.2031 14.25 11.25 14.25H8.75C6.75781 14.25 5.15625 15.7734 5 17.7266C6.40625 18.7031 8.125 19.25 10 19.25ZM16.0547 16.7891C17.6953 15.1875 18.75 12.9609 18.75 10.5C18.75 5.69531 14.8047 1.75 10 1.75C5.15625 1.75 1.25 5.69531 1.25 10.5C1.25 12.9609 2.26562 15.1875 3.90625 16.7891C4.45312 14.6406 6.40625 13 8.75 13H11.25C13.5547 13 15.5078 14.6406 16.0547 16.7891ZM10 5.5C11.7188 5.5 13.125 6.90625 13.125 8.625C13.125 10.3828 11.7188 11.75 10 11.75C8.24219 11.75 6.875 10.3828 6.875 8.625C6.875 6.90625 8.24219 5.5 10 5.5ZM10 10.5C11.0156 10.5 11.875 9.67969 11.875 8.625C11.875 7.60938 11.0156 6.75 10 6.75C8.94531 6.75 8.125 7.60938 8.125 8.625C8.125 9.67969 8.94531 10.5 10 10.5Z" fill="#292929"/>
</svg>
