<svg width="27" height="72" viewBox="0 0 27 72" fill="none" xmlns="http://www.w3.org/2000/svg">
<path fill-rule="evenodd" clip-rule="evenodd" d="M25.2405 2.34601e-06C23.9838 0.00174134 22.755 0.370111 21.7046 1.05995C19.9509 2.23035 19.0111 4.14097 18.5649 5.35982C19.7203 5.15006 21.3088 4.70631 22.6652 3.7699C23.4946 3.18373 24.7187 2.07775 26.0732 0.055713C25.7972 0.0186923 25.519 -0.000242577 25.2405 2.34601e-06ZM12.5061 3.64394C11.4747 4.88313 9.72685 7.35958 9.5573 9.67761C9.41245 11.5001 10.0999 12.6826 10.7892 13.3962C12.275 10.7463 12.8306 8.87877 13.0317 7.74907C13.3301 5.98184 12.8936 4.52077 12.5061 3.64394ZM12.1791 14.4721C12.8776 14.8616 14.1808 15.3925 15.5459 14.9294C16.353 14.6518 17.6237 13.9581 19.2243 12.2311C18.2341 11.2859 17.1664 10.8916 16.1098 11.0893C14.4191 11.4027 12.8578 13.4242 12.1791 14.4721ZM4.54192 15.8794C3.95381 17.3753 3.0048 20.4699 3.62391 22.7778C4.06959 24.4893 5.10435 25.2838 5.97828 25.6539C6.25005 24.2664 6.6904 21.5924 6.3668 19.4061C6.0989 17.6282 5.18574 16.4849 4.54192 15.8794ZM7.67381 26.0603C8.48185 26.1369 9.85862 26.0918 10.9946 25.1714C11.9606 24.3866 12.8694 23.066 13.7026 21.2421C12.7502 20.8434 11.5464 20.6511 10.4041 21.3603H10.4026C8.8849 22.3001 8.00952 24.7911 7.67381 26.0603ZM0.886354 30.4682C0.810782 32.0509 0.873759 35.4468 2.18222 37.323C3.1012 38.6586 4.28032 38.9807 5.27875 38.9449C4.9503 36.3115 4.41839 34.2822 3.69464 32.9064V32.9035C2.89047 31.3644 1.66485 30.7274 0.886354 30.4682ZM11.1526 31.8062C10.2229 31.8062 9.0312 32.0732 8.16067 33.2063L8.15921 33.2092C7.0174 34.6838 6.93601 37.2828 7.00625 38.6421C7.81042 38.3781 9.05542 37.7847 9.84021 36.5125C10.3198 35.7302 10.9302 34.2899 11.2165 31.8077C11.1957 31.8062 11.1729 31.8062 11.1526 31.8062ZM8.73182 51.6522L8.71971 51.6226L8.71147 51.6023C7.59969 49.2717 6.48791 47.5945 5.4047 46.6106H5.40277C4.16551 45.4848 2.79359 45.4596 2.0117 45.5691C2.4133 47.0214 3.54156 50.2497 5.35626 51.4666C6.42008 52.1928 7.55173 52.2534 8.73182 51.6522ZM12.0769 42.6901C11.1206 43.068 10.112 43.7961 9.6445 45.2004V45.2019C9.04089 47.0035 9.72056 49.4107 10.2031 50.6828C10.8793 50.1044 11.84 49.0585 12.1907 47.5718C12.4039 46.6542 12.5424 45.0851 12.0769 42.6901ZM7.82205 59.2811C8.64995 60.5009 10.7548 63.0684 12.6868 63.457C13.8727 63.7026 14.9229 63.2874 15.822 62.2245C14.0732 60.45 12.5356 59.299 11.2465 58.8015C9.73993 58.2347 8.4678 58.8466 7.82205 59.2811ZM16.1926 52.6119C15.4689 53.2789 14.704 54.3519 14.7132 55.9031V55.908C14.7132 57.805 16.0212 59.7505 16.8592 60.7707C17.3078 59.9603 17.8693 58.6039 17.7404 57.0721C17.63 55.7849 17.1092 54.2875 16.1926 52.6119ZM15.6515 50.9885C15.6395 51.0162 15.6293 51.0447 15.621 51.0738C15.6244 51.0636 15.6273 51.0515 15.6317 51.0408C15.638 51.0229 15.6438 51.005 15.6515 50.9885ZM17.4774 69.8801C18.5393 70.6446 21.2027 72.2839 23.1119 71.8857C24.2425 71.6517 25.0709 70.8466 25.5801 69.4858C24.5182 68.9897 22.2966 68.0218 20.4998 68.0218C20.4717 68.0218 20.4441 68.0233 20.4155 68.0233C18.8377 68.0606 17.8901 69.2179 17.4774 69.8801ZM23.0479 60.4307C22.4036 61.6326 22.268 62.8751 22.6623 64.064L22.6638 64.0649C23.2407 65.8171 25.0002 67.1266 26.0703 67.7641C26.2428 66.8364 26.3595 65.3511 25.7826 63.9797C25.4357 63.1644 24.6795 61.9174 23.0479 60.4307Z" fill="#FCD13A"/>
</svg>
