<svg width="27" height="72" viewBox="0 0 27 72" fill="none" xmlns="http://www.w3.org/2000/svg">
<path fill-rule="evenodd" clip-rule="evenodd" d="M4.33416 3.76974C5.69543 4.70955 7.28923 5.15329 8.44655 5.3616C8.00911 4.15341 7.07511 2.23988 5.30255 1.05447C4.01163 0.207559 2.45898 -0.14634 0.928566 0.0574927C1.9798 1.63579 3.18895 2.95927 4.33416 3.76974ZM13.9677 7.74891C14.2487 9.3243 15.002 11.2189 16.2126 13.3902C16.9005 12.6771 17.5855 11.4975 17.4416 9.6823C17.2711 7.36087 15.5247 4.88346 14.4938 3.64427C14.1043 4.5211 13.6678 5.98216 13.9677 7.74891ZM7.77512 12.2319C9.37376 13.9584 10.6449 14.6521 11.4544 14.9297C12.8186 15.3928 14.1203 14.8619 14.8188 14.4724C14.1406 13.4246 12.5783 11.403 10.8891 11.0896H10.8876C9.83253 10.8919 8.7658 11.2863 7.77512 12.2319ZM20.6331 19.4045C20.3095 21.5898 20.7464 24.2488 21.0133 25.6498C21.8853 25.2797 22.9152 24.4853 23.3571 22.7844C23.9781 20.4736 23.0291 17.38 22.4429 15.8826C21.802 16.4867 20.901 17.6242 20.6331 19.4045ZM13.2934 21.2434C14.1198 23.0649 15.0286 24.3835 16.0028 25.1722C17.1398 26.0921 18.5166 26.1372 19.326 26.0606C18.9903 24.7914 18.113 22.3004 16.5948 21.3606C15.4515 20.6514 14.2467 20.8437 13.2934 21.2434ZM21.7226 38.9452C22.7195 38.984 23.8987 38.6604 24.8142 37.3282C26.1246 35.4486 26.1886 32.0512 26.1135 30.4685C25.335 30.7277 24.1099 31.3647 23.3052 32.9024C22.3039 34.828 21.8916 37.5675 21.7226 38.9452ZM15.7814 31.8085C16.0692 34.2903 16.6791 35.7305 17.1601 36.5158C17.9444 37.785 19.1875 38.3789 19.9926 38.6425C20.0619 37.2831 19.982 34.6846 18.8397 33.2095L18.8373 33.2066C17.9459 32.0478 16.7149 31.7983 15.7814 31.8085ZM18.2695 51.6544C19.4491 52.2542 20.5788 52.1922 21.6354 51.4718C23.4389 50.2622 24.573 47.046 24.9833 45.5694C24.2 45.4604 22.8329 45.4885 21.5966 46.6095C20.0706 48.0037 18.8256 50.4826 18.2695 51.6544ZM14.923 42.6904C14.457 45.0855 14.596 46.6546 14.8087 47.575C15.1672 49.0574 16.123 50.1018 16.7963 50.6802C17.2788 49.4076 17.9575 47.0024 17.3549 45.2022V45.2008C16.8864 43.7964 15.8788 43.0683 14.923 42.6904ZM11.1793 62.2234C12.0842 63.2872 13.133 63.7029 14.3049 63.4587C16.245 63.0688 18.3499 60.5012 19.1773 59.2814C18.5316 58.8512 17.2517 58.2384 15.7528 58.8018C14.4642 59.2979 12.9261 60.4489 11.1793 62.2234ZM10.8072 52.6122C9.88872 54.2878 9.36795 55.7852 9.25847 57.0738C9.12864 58.6056 9.69156 59.9606 10.1382 60.7716C10.9763 59.7508 12.2862 57.8053 12.2862 55.9078V55.9034C12.2935 54.3523 11.529 53.2792 10.8072 52.6122ZM11.3469 50.9874C11.3541 51.0053 11.3614 51.0247 11.3672 51.0431C11.3721 51.0547 11.375 51.0673 11.3779 51.077C11.3692 51.0466 11.3588 51.0167 11.3469 50.9874ZM1.4193 69.4861C1.93039 70.8454 2.76313 71.6515 3.89914 71.8841C5.81073 72.2828 8.46738 70.6488 9.53315 69.8833C9.11411 69.2134 8.16461 68.0609 6.58341 68.0231C6.55482 68.0231 6.5277 68.0216 6.4996 68.0216C4.70331 68.0216 2.48119 68.9886 1.4193 69.4861ZM3.95049 60.431C2.31987 61.9177 1.56415 63.1661 1.21487 63.9829C0.638386 65.3529 0.756595 66.8362 0.927117 67.7644C1.99772 67.1274 3.75816 65.8175 4.33561 64.0652V64.0638C4.73043 62.8755 4.59624 61.6329 3.95049 60.431Z" fill="#FCD13A"/>
</svg>
